<svg width="230" height="230" viewBox="0 0 230 230" fill="none" xmlns="http://www.w3.org/2000/svg">
<path d="M228.92 226H1.08008C0.483568 226 0 226.672 0 227.5C0 228.328 0.483568 229 1.08008 229H228.92C229.516 229 230 228.328 230 227.5C230 226.672 229.516 226 228.92 226Z" fill="#2B468B"/>
<path d="M212.042 30.335H115.77V223.078H212.042V30.335Z" fill="#B0E2E1"/>
<path fill-rule="evenodd" clip-rule="evenodd" d="M109.466 25.4956H114.063H211.779H216.376V30.3349V227.226H211.779V30.3349H114.063V227.226H109.466V30.3349V25.4956Z" fill="#5A9DAE"/>
<path d="M115.77 30.335V225.152H212.042" stroke="#6BB6BF" stroke-width="5"/>
<path fill-rule="evenodd" clip-rule="evenodd" d="M205.475 37.2483H124.176V84.7152H205.475V37.2483ZM205.475 91.6285H124.176V140.601H205.475V91.6285ZM124.176 216.165V147.514H205.475V216.165H124.176ZM124.176 30.335H117.609V37.2483V216.165V223.078H124.176H205.475H212.042V216.165V37.2483V30.335H205.475H124.176Z" fill="#86D1CD"/>
<path d="M213.224 135.763C213.224 141.742 208.564 146.616 202.782 146.616C197.002 146.616 192.341 141.742 192.341 135.763C192.341 129.783 197.002 124.909 202.782 124.909C208.564 124.909 213.224 129.783 213.224 135.763Z" stroke="#F1A350" stroke-width="3"/>
<path d="M192.015 142.046C191.76 141.17 192.228 140.242 193.061 139.974L216.373 132.447C217.205 132.178 218.086 132.671 218.342 133.547L221.082 142.954C222.851 149.026 219.61 155.458 213.841 157.32L208.402 159.076C202.634 160.938 196.525 157.526 194.756 151.454L192.015 142.046Z" fill="#D76713"/>
<path d="M189.913 142.738C189.659 141.861 190.126 140.934 190.959 140.665L214.272 133.138C215.103 132.87 215.984 133.362 216.241 134.238L218.98 143.646C220.749 149.718 217.508 156.149 211.74 158.012L206.301 159.768C200.532 161.63 194.424 158.217 192.655 152.145L189.913 142.738Z" fill="#F1A350"/>
<path fill-rule="evenodd" clip-rule="evenodd" d="M206.942 147.505C207.879 146.846 208.495 145.734 208.495 144.474C208.495 142.45 206.909 140.81 204.949 140.81C202.991 140.81 201.403 142.45 201.403 144.474C201.403 146.471 202.95 148.096 204.874 148.137L205.175 149.246L204.997 149.278C204.381 149.389 203.965 150.004 204.071 150.654C204.176 151.303 204.76 151.739 205.377 151.628L205.8 151.553L206.46 153.989C206.464 154.083 206.479 154.179 206.506 154.273C206.686 154.904 207.316 155.262 207.916 155.074L209.387 154.61C209.986 154.422 210.328 153.757 210.148 153.126C209.969 152.495 209.337 152.137 208.738 152.326L208.287 152.468L206.942 147.505Z" fill="#C65407"/>
<path fill-rule="evenodd" clip-rule="evenodd" d="M207.205 147.367C208.142 146.708 208.758 145.596 208.758 144.335C208.758 142.312 207.172 140.671 205.212 140.671C203.254 140.671 201.666 142.312 201.666 144.335C201.666 146.333 203.213 147.957 205.137 147.999L205.438 149.108L205.259 149.14C204.643 149.25 204.228 149.866 204.334 150.515C204.439 151.165 205.023 151.601 205.64 151.49L206.063 151.415L206.723 153.851C206.727 153.945 206.742 154.04 206.769 154.135C206.948 154.766 207.579 155.124 208.179 154.935L209.65 154.472C210.249 154.283 210.591 153.619 210.411 152.988C210.232 152.357 209.6 151.999 209.001 152.187L208.55 152.33L207.205 147.367Z" fill="#D76713"/>
<path d="M204.03 116.613C204.03 114.704 202.56 113.156 200.746 113.156C198.933 113.156 197.463 114.704 197.463 116.613V130.44C197.463 132.349 198.933 133.896 200.746 133.896C202.56 133.896 204.03 132.349 204.03 130.44V116.613Z" fill="#5A9DAE"/>
<path d="M69.7075 183.679H76.1827V222.672C76.1827 224.552 74.7353 226.08 72.945 226.08C71.1591 226.08 69.7075 224.556 69.7075 222.672V183.679Z" fill="#ACAFE0"/>
<path d="M56.1561 150.272C64.0067 150.272 70.3717 156.973 70.3717 165.238V180.792C70.3717 182.386 69.1444 183.683 67.6251 183.683H44.687C43.172 183.683 41.9404 182.39 41.9404 180.792V165.238C41.9404 156.973 48.3056 150.272 56.1561 150.272Z" fill="#FF7A82"/>
<path d="M89.7379 150.272H56.156C64.0066 150.272 70.3717 156.973 70.3717 165.238V178.715V180.792C70.3717 182.386 69.1445 183.683 67.6251 183.683H101.203C102.718 183.683 103.949 182.39 103.949 180.792V165.238C103.945 156.978 97.5885 150.277 89.7379 150.272Z" fill="#FA5555"/>
<path d="M56.1561 152.901C62.7751 152.901 68.1373 158.551 68.1373 165.514V178.617C68.1373 179.963 67.1004 181.055 65.8223 181.055H46.49C45.2118 181.055 44.175 179.963 44.175 178.617V165.51C44.1793 158.546 49.5413 152.901 56.1561 152.901Z" fill="#BF3A3A"/>
<path d="M79.5512 166.981C81.5052 166.981 83.0893 165.313 83.0893 163.255C83.0893 161.198 81.5052 159.531 79.5512 159.531C77.5971 159.531 76.0132 161.198 76.0132 163.255C76.0132 165.313 77.5971 166.981 79.5512 166.981Z" fill="#EBDBCD"/>
<path d="M84.6553 140.81H79.5514C78.8489 140.81 78.2776 141.411 78.2776 142.151V163.26C78.2776 164 78.8489 164.601 79.5514 164.601C80.254 164.601 80.8253 164 80.8253 163.26V145.497C80.8253 145.296 80.9819 145.131 81.1723 145.131H84.6553C85.3494 145.136 85.9208 144.548 85.9292 143.817V142.151C85.9335 141.411 85.3622 140.81 84.6553 140.81Z" fill="#FCB58A"/>
<path d="M22.2104 181.055H67.5449C68.2135 181.055 68.7552 181.624 68.7552 182.328V182.404C68.7552 183.108 68.2135 183.679 67.5449 183.679H22.2104C21.5417 183.679 21 183.108 21 182.404V182.328C21 181.624 21.5417 181.055 22.2104 181.055Z" fill="#FF7A82"/>
<path d="M44.5984 165.55C44.2387 165.225 43.7097 165.225 43.3499 165.55L29.6506 177.567C29.8876 177.869 30.2431 178.048 30.6156 178.048H57.3075C57.6799 178.042 58.0354 177.869 58.2725 177.567L44.5984 165.55Z" fill="#D5D5ED"/>
<path d="M58.1713 158.355L58.0986 158.283L58.1713 158.355Z" fill="white"/>
<path d="M43.3329 169.573C43.7096 169.854 44.209 169.854 44.5814 169.573L58.1664 158.355C58.1411 158.328 58.1199 158.301 58.0945 158.279C58.031 158.226 57.9591 158.181 57.8872 158.145C57.921 158.145 57.9506 158.185 57.9845 158.203C57.7898 158.083 57.5698 158.021 57.3454 158.021H30.6154C30.298 158.016 29.989 158.132 29.7478 158.355L43.3329 169.573Z" fill="white"/>
<path d="M41.0179 167.657L29.7478 158.354C29.714 158.39 29.6716 158.421 29.642 158.457C29.4304 158.724 29.3204 159.058 29.3288 159.406V176.598C29.3288 176.955 29.4473 177.303 29.6674 177.575L41.0179 167.657Z" fill="#E8E8F7"/>
<path d="M58.0992 177.745L58.0564 177.775L58.0992 177.745Z" fill="#E8E8F7"/>
<path d="M58.0785 177.775C58.0147 177.83 57.9424 177.878 57.8701 177.918C57.9424 177.878 58.0147 177.834 58.0785 177.775Z" fill="#E8E8F7"/>
<path d="M58.1709 158.354L46.9219 167.644L58.2935 177.552C58.2385 177.615 58.1793 177.677 58.1158 177.731C58.4417 177.446 58.6321 177.023 58.6279 176.576V159.401C58.6279 158.996 58.4586 158.617 58.1709 158.354Z" fill="#E8E8F7"/>
<path d="M58.2726 158.467C58.2428 158.426 58.2045 158.391 58.1663 158.359C58.2088 158.395 58.2428 158.431 58.2726 158.467Z" fill="#E8E8F7"/>
<path d="M74.6717 216.108C75.1838 214.478 75.8609 212.906 76.6819 211.422C77.4311 210.107 78.1251 209.087 78.6753 208.237C79.2255 207.385 79.6698 206.685 80.0211 206.124C80.3723 205.562 80.6559 205.167 80.948 205.127C81.24 205.081 81.6208 205.39 81.989 206.111C82.4376 207.118 82.6534 208.227 82.6196 209.341C82.59 210.825 82.391 212.295 82.0271 213.726C81.697 215.173 81.3034 216.683 80.8082 218.265C80.3428 219.753 79.801 221.218 79.1958 222.649C78.6372 223.963 78.0405 225.224 77.5284 226.16L76.2799 228.494C75.9583 229.087 75.7128 229.478 75.5012 229.51C75.2896 229.542 74.8537 229.247 74.477 228.548C74.0115 227.594 73.728 226.547 73.6433 225.478C73.4994 224.043 73.4994 222.595 73.6433 221.156C73.8084 219.436 74.1554 217.748 74.6717 216.108Z" fill="#4C7378"/>
<path d="M67.3165 214.371C66.5167 212.437 65.5601 210.424 64.8153 208.365C64.0958 206.467 63.6768 204.458 63.5668 202.417C63.4822 200.983 63.7149 199.548 64.2398 198.221C64.6545 197.285 65.1116 196.907 65.3866 196.942C65.6618 196.978 65.8903 197.535 66.1992 198.341C66.5928 199.401 67.0372 200.44 67.5407 201.446C68.1503 202.693 68.9713 204.079 69.9785 205.688C71.2058 207.573 72.2808 209.556 73.1949 211.627C74.1302 213.858 74.7438 216.22 75.0148 218.644C75.2389 220.609 75.2221 222.596 74.9555 224.556C74.4857 227.898 73.4615 229.769 73.0679 229.737C72.5221 229.702 71.9125 227.732 71.0323 224.877C69.9742 221.308 68.7342 217.802 67.3165 214.371Z" fill="#57848A"/>
<path d="M64.9717 221.455C64.7517 221.259 64.5569 221.046 64.3284 220.858C64.1042 220.671 63.9138 220.462 63.6809 220.306C63.5708 220.222 63.4651 220.136 63.3593 220.043C63.2535 219.949 63.1393 219.891 63.0334 219.807L62.7075 219.562L62.3309 219.312C61.7976 218.969 61.1417 218.59 60.4984 218.096C59.8254 217.606 59.2372 217 58.7633 216.3C58.0395 215.28 57.756 213.983 57.9888 212.736C58.1876 211.908 58.577 211.555 58.8563 211.561C59.1356 211.565 59.4615 211.904 59.9059 212.277C60.3799 212.71 60.9427 213.008 61.5522 213.155C62.1532 213.289 62.9446 213.297 64.4682 213.65C64.6543 213.694 64.8532 213.752 65.0606 213.814C65.268 213.881 65.4754 213.971 65.7039 214.055C65.9325 214.139 66.1186 214.224 66.3556 214.331L66.9947 214.67C67.4263 214.905 67.8453 215.174 68.2431 215.472C68.6452 215.779 69.0346 216.114 69.4027 216.465C70.7697 217.816 71.8023 219.5 72.4075 221.371C72.8943 222.858 73.0678 224.444 72.9154 226.008C72.8604 226.605 72.7419 227.193 72.5726 227.764C72.433 228.191 72.2552 228.602 72.0478 228.997C71.6543 229.644 71.3241 229.938 71.1167 229.911C70.5623 229.835 70.0249 228.406 69.0346 226.739C67.9173 224.793 66.5503 223.01 64.9717 221.455Z" fill="#689399"/>
</svg>
