<svg width="230" height="232" viewBox="0 0 230 232" fill="none" xmlns="http://www.w3.org/2000/svg">
<path d="M217.928 26.9897H110.495V229.643H217.928V26.9897Z" fill="#BFEFEF"/>
<path d="M217.928 26.9897H182.689V229.643H217.928V26.9897Z" fill="#B0E2E1"/>
<path fill-rule="evenodd" clip-rule="evenodd" d="M110.495 27.4058H115.114H213.309H217.928V32.2572V229.643H213.309V32.2572H115.114V229.643H110.495V32.2572V27.4058Z" fill="#5A9DAE"/>
<path d="M64.1689 8L110.495 26.505V229.644H64.1689V8Z" fill="#6AB7BF"/>
<path d="M64.1691 8H59.8137V229.644H64.1691V8Z" fill="#5A9DAE"/>
<path d="M81.3266 118.752C81.3266 116.839 79.8494 115.287 78.0271 115.287C76.2048 115.287 74.7275 116.839 74.7275 118.752V132.614C74.7275 134.528 76.2048 136.079 78.0271 136.079C79.8494 136.079 81.3266 134.528 81.3266 132.614V118.752Z" fill="#5A9DAE"/>
<path d="M228.92 229H1.08008C0.483568 229 0 229.672 0 230.5C0 231.328 0.483568 232 1.08008 232H228.92C229.516 232 230 231.328 230 230.5C230 229.672 229.516 229 228.92 229Z" fill="#2B468B"/>
<path d="M21.5285 209.54C15.3294 209.54 10.2861 208.933 10.1077 208.192L11.0209 219.541C11.0209 224.921 15.7432 229.334 21.5285 229.334C27.3137 229.334 32.0361 224.928 32.0361 219.541L32.9492 208.169C32.8207 208.933 27.7631 209.54 21.5285 209.54Z" fill="#DEC7B2"/>
<path d="M21.5285 209.54C15.2368 209.54 10.1219 208.918 10.1077 208.161V208.146C10.1577 207.39 15.251 206.768 21.5285 206.768C27.8059 206.768 32.8993 207.39 32.9492 208.146V208.161C32.9135 208.918 27.8202 209.54 21.5285 209.54Z" fill="#E8D4C1"/>
<path d="M21.5284 209.301C16.2281 209.301 11.9195 208.775 11.9053 208.124V208.108C11.9552 207.472 16.2423 206.948 21.5284 206.948C26.8285 206.948 31.1228 207.472 31.1514 208.108V208.124C31.1371 208.783 26.8285 209.301 21.5284 209.301Z" fill="#BA9C7E"/>
<path d="M10.4929 213.054C11.2277 213.068 11.9482 213.376 12.5759 214.012C13.7458 215.204 14.4805 217.039 15.4293 218.432C15.7788 217.676 16.0998 216.905 16.3709 216.111C16.7062 215.167 17.9118 214.298 18.8533 215.054C19.8592 215.878 20.6153 216.8 21.2716 217.946C21.8352 218.936 22.2989 220.118 23.1763 220.853C24.0252 221.579 24.9881 221.774 25.3377 220.501C25.6445 219.376 25.5303 218.179 25.8799 217.055C26.1651 216.111 26.6147 215.151 27.5277 214.731C28.5977 214.245 29.6392 214.852 30.6023 215.354C31.1801 215.653 31.7365 215.976 32.2857 216.328L32.0931 218.718C31.1158 218.08 29.9174 217.286 28.9044 217.136C28.2625 217.039 28.3124 217.488 28.2625 218.111C28.234 218.665 28.234 219.235 28.1982 219.796C28.1341 220.943 27.9771 222.082 27.335 223.026C25.9583 225.064 23.376 224.958 21.5712 223.662C20.5939 222.973 19.8877 222.067 19.2671 221.025C19.0603 220.688 18.8676 220.336 18.6608 219.984C17.8761 221.887 16.692 223.603 14.7231 222.875C13.5033 222.419 12.7043 221.025 11.9838 219.984C11.7627 219.662 11.3418 218.875 10.9281 218.17L10.4929 213.054Z" fill="#EBDBCD"/>
<path d="M6.02724 170.731C6.26983 169.758 7.35406 169.608 7.99615 170.177C9.21593 171.257 9.8509 172.733 10.5285 174.201C11.2347 175.752 12.0979 177.16 13.1037 178.494C15.151 181.235 17.4267 183.775 18.9176 186.921C21.8138 193.013 22.5199 200.176 20.5226 206.686C20.4583 206.887 20.8436 205.862 20.2159 207.659C19.6523 209.292 17.4481 208.416 17.4623 206.513C17.4766 204.647 17.0129 202.917 16.2282 201.269C14.6731 197.987 12.7185 194.93 11.1991 191.634C9.65821 188.301 8.31713 184.869 7.22577 181.356C6.16991 177.932 5.16408 174.313 6.02724 170.731Z" fill="#4C7378"/>
<path d="M20.28 151.642C21.0648 150.144 23.3545 151.155 22.9051 152.804C21.5569 157.613 22.5199 162.708 23.3545 167.525C24.2034 172.44 25.195 177.316 25.7728 182.276C26.8 191.073 26.4648 200.961 21.1574 208.334C20.5796 209.128 19.3812 208.469 19.8591 207.525C20.387 206.484 19.0602 199.621 18.4681 197.432C17.8761 195.163 17.2696 192.908 16.7418 190.622C15.6861 186.166 14.8229 181.625 14.5946 177.032C14.1167 168.095 16.2139 159.449 20.28 151.642Z" fill="#57848A"/>
<path d="M22.8124 200.572C23.4402 197.575 22.9694 194.399 23.5829 191.425C24.175 188.494 24.9952 185.536 26.2864 182.861C27.5206 180.322 29.411 178.524 31.6223 176.942C33.7053 175.459 36.1735 173.998 36.9082 171.294C37.3434 169.675 39.9542 169.914 39.7902 171.698C39.4405 175.331 37.9782 178.531 36.2805 181.67C34.4685 185.004 32.885 188.195 32.0076 191.948C30.4881 198.377 29.1755 206.7 22.2061 208.671C21.35 208.902 21.4642 206.985 22.8124 200.572Z" fill="#689399"/>
</svg>
