<svg width="230" height="232" viewBox="0 0 230 232" fill="none" xmlns="http://www.w3.org/2000/svg">
<path d="M217.928 26.9897H110.495V229.643H217.928V26.9897Z" fill="#BFEFEF"/>
<path d="M217.928 26.9897H182.689V229.643H217.928V26.9897Z" fill="#B0E2E1"/>
<path fill-rule="evenodd" clip-rule="evenodd" d="M110.495 27.4058H115.114H213.309H217.928V32.2572V229.643H213.309V32.2572H115.114V229.643H110.495V32.2572V27.4058Z" fill="#5A9DAE"/>
<path d="M64.1689 8L110.495 26.505V229.644H64.1689V8Z" fill="#6AB7BF"/>
<path d="M64.1691 8H59.8137V229.644H64.1691V8Z" fill="#5A9DAE"/>
<path d="M81.3266 118.752C81.3266 116.839 79.8494 115.287 78.0271 115.287C76.2048 115.287 74.7275 116.839 74.7275 118.752V132.614C74.7275 134.528 76.2048 136.079 78.0271 136.079C79.8494 136.079 81.3266 134.528 81.3266 132.614V118.752Z" fill="#5A9DAE"/>
<path d="M228.92 229H1.08008C0.483568 229 0 229.672 0 230.5C0 231.328 0.483568 232 1.08008 232H228.92C229.516 232 230 231.328 230 230.5C230 229.672 229.516 229 228.92 229Z" fill="#2B468B"/>
<path fill-rule="evenodd" clip-rule="evenodd" d="M121.328 80.211C119.702 77.9549 118.601 75.1899 118.785 72.0918C119.315 63.165 129.83 65.1288 131.875 69.6342C133.92 74.1397 133.677 85.5681 131.034 86.3733C129.979 86.6945 127.734 85.9079 125.448 84.2797L126.883 96.2745H118.412L121.328 80.211Z" fill="#B28B67"/>
<path fill-rule="evenodd" clip-rule="evenodd" d="M135.628 63.3884C135.453 62.6597 134.982 62.0358 134.345 61.8506C134.191 61.8057 134.031 61.7877 133.873 61.7952C133.816 61.7979 133.8 61.8172 133.774 61.7702C133.754 61.7354 133.753 61.6502 133.745 61.6091C133.72 61.4818 133.688 61.3559 133.65 61.2334C133.517 60.8152 133.292 60.4452 133.023 60.1335C132.519 59.5503 131.838 59.1479 131.13 59.075C130.742 59.0352 130.358 59.1095 129.991 59.2585C129.803 59.3356 129.619 59.4315 129.44 59.5377C129.386 59.5696 129.211 59.7261 129.157 59.716C129.096 59.7047 128.976 59.5292 128.928 59.4852C128.327 58.9407 127.587 58.7267 126.838 58.733C125.994 58.7405 125.181 58.7904 124.477 59.3987C124.328 59.5274 124.185 59.6684 124.051 59.8169C123.979 59.895 123.911 59.9761 123.845 60.0606C123.805 60.1116 123.766 60.1637 123.729 60.2172C123.665 60.308 123.676 60.3378 123.588 60.2744C123.248 60.0312 122.856 59.9174 122.46 59.9748C122.225 60.0089 121.997 60.0922 121.781 60.2019C121.707 60.2392 121.535 60.3882 121.456 60.3896C121.378 60.391 121.209 60.2529 121.13 60.2179C120.694 60.0283 120.226 59.9815 119.769 60.0691C119.298 60.1595 118.836 60.3817 118.436 60.6887C118.245 60.8364 118.077 61.0001 117.943 61.2196C117.885 61.3145 117.832 61.4147 117.766 61.5027C117.727 61.5541 117.651 61.6069 117.63 61.6721C117.643 61.633 117.115 61.3926 117.065 61.3772C116.8 61.2955 116.529 61.312 116.27 61.413C115.782 61.603 115.361 62.029 115.017 62.4658C114.839 62.6902 114.684 62.9382 114.552 63.2024C114.489 63.3289 114.431 63.4591 114.378 63.592C114.353 63.6565 114.336 63.737 114.302 63.7951C114.258 63.8698 114.229 63.8712 114.151 63.9038C113.751 64.0693 113.386 64.3495 113.109 64.728C112.828 65.1109 112.646 65.5826 112.57 66.0793C112.565 66.1085 112.562 66.2298 112.548 66.2456C112.528 66.2674 112.448 66.2578 112.417 66.262C112.312 66.2767 112.207 66.2983 112.104 66.3273C111.914 66.3804 111.729 66.4587 111.554 66.5611C110.871 66.9603 110.383 67.7086 110.144 68.5506C109.893 69.4343 109.898 70.4466 110.197 71.3138C110.246 71.4539 110.303 71.5899 110.371 71.7184C110.413 71.7974 110.426 71.7975 110.399 71.8804C110.369 71.9726 110.314 72.0621 110.278 72.1521C110.162 72.446 110.08 72.7577 110.029 73.076C109.945 73.5981 109.903 74.1469 109.986 74.6729C110.025 74.9173 110.092 75.1561 110.195 75.3736C110.247 75.4847 110.308 75.5899 110.378 75.6872C110.414 75.7378 110.452 75.786 110.492 75.8322C110.514 75.8586 110.544 75.8818 110.564 75.9113C110.611 75.9831 110.621 75.9241 110.597 76.0297C110.563 76.1773 110.485 76.323 110.438 76.4667C110.389 76.6149 110.345 76.765 110.304 76.9165C110.222 77.2236 110.153 77.536 110.11 77.854C110.027 78.4643 110.042 79.1147 110.286 79.6748C110.39 79.9145 110.54 80.1246 110.722 80.2882C110.811 80.3682 110.907 80.4371 111.008 80.4937C111.06 80.5229 111.127 80.5353 111.15 80.5947C111.176 80.6586 111.138 80.7853 111.129 80.8566C111.054 81.4775 111.016 82.1293 111.173 82.7376C111.316 83.2979 111.633 83.7926 112.044 84.1202C112.842 84.7556 113.917 84.7198 114.755 84.2111C114.973 84.0784 115.178 83.9139 115.36 83.7197C115.824 84.4582 116.78 84.4348 117.458 84.2244C118.303 83.9623 118.981 83.2677 119.372 82.3549C119.907 83.1237 121.028 82.8743 121.399 82.0404C121.489 81.8362 121.543 81.6112 121.57 81.3836C121.584 81.2639 121.575 81.1432 121.585 81.0244C121.599 80.8731 121.684 80.7261 121.733 80.5797C121.83 80.2947 121.889 80.0004 121.892 79.6931C121.893 79.5327 121.876 79.3764 121.863 79.2173C121.851 79.0739 121.884 78.9404 121.903 78.7991C121.687 78.8412 121.423 78.7722 121.218 78.6979C121.018 78.625 120.83 78.433 120.689 78.2576C120.361 77.8504 120.16 77.3167 120.023 76.7854C119.72 75.6194 119.844 74.2205 120.837 73.5807C121.299 73.2825 122.683 73.2835 123.235 73.4308C123.813 73.5858 124.47 75.0954 124.502 75.2374C124.522 75.3251 124.513 75.4339 124.58 75.4924C124.73 75.6211 124.979 75.3977 125.088 75.2876C125.28 75.0974 125.415 74.8443 125.534 74.5878C125.79 74.0289 125.998 73.4297 126.144 72.8179C126.258 72.3462 126.329 71.8599 126.477 71.4003C126.623 70.9428 126.855 70.5341 127.214 70.275C127.606 69.9931 128.055 69.8446 128.484 69.6676C128.91 69.492 129.329 69.2774 129.659 68.9049C129.731 68.823 129.803 68.7361 129.861 68.6396C129.907 68.5635 129.952 68.4177 130.023 68.3695C130.131 68.2943 130.291 68.4897 130.386 68.5606C130.852 68.9103 131.24 69.3983 131.554 69.9312C131.865 70.4613 132.121 70.9714 132.33 71.5633C132.484 72.0023 132.581 72.5643 132.851 72.9242C132.973 73.0848 133.873 73.182 134.165 73.0417C134.456 72.9015 134.784 72.5373 134.881 72.3092C134.982 72.0756 135.005 71.819 134.962 71.5633C134.937 71.4127 134.885 71.2723 134.857 71.1246C134.834 71.0004 134.813 70.8831 134.761 70.7693C134.665 70.5539 134.498 70.3989 134.299 70.3342C134.506 70.1078 134.679 69.8371 134.798 69.5344C134.922 69.2199 135.026 68.8374 135.057 68.4923C135.081 68.212 135.044 67.9215 134.913 67.6806C134.777 67.4279 134.535 67.2629 134.327 67.1053C134.646 66.8103 134.92 66.4518 135.144 66.0546C135.579 65.2824 135.85 64.3091 135.628 63.3884Z" fill="#191847"/>
<path fill-rule="evenodd" clip-rule="evenodd" d="M115.592 130.906L132.564 183.976L144.459 223.09H151.242L134.89 130.906H115.592Z" fill="#1F28CF"/>
<path fill-rule="evenodd" clip-rule="evenodd" d="M111.397 130.906C111.213 149.115 111.346 173.631 110.917 174.767C110.63 175.523 101.717 184.145 84.178 200.632L87.674 207.657C108.497 191.788 119.441 182.797 120.506 180.681C122.103 177.51 130.125 148.326 134.299 130.906H111.397Z" fill="#2B44FF"/>
<path fill-rule="evenodd" clip-rule="evenodd" d="M78.0272 205.358L83.9322 200.048L88.6968 206.758C89.0633 211.816 90.4805 217.49 92.9486 223.779L91.867 224.85L83.2455 212.709L80.8369 208.018L80.296 208.555L78.0272 205.358Z" fill="#191847"/>
<path fill-rule="evenodd" clip-rule="evenodd" d="M143.829 230.599L144.182 221.84H151.594C155.109 224.759 159.698 227.122 165.36 228.93V230.599H151.948L147.359 229.764V230.599H143.829Z" fill="#191847"/>
<path fill-rule="evenodd" clip-rule="evenodd" d="M145.947 114.344L159.883 112.098C162.67 110.265 165.235 109.025 167.576 108.376C168.235 108.353 169.284 108.637 167.721 110.175C166.16 111.713 164.576 113.415 164.854 114.236C165.132 115.057 166.585 114.752 166.825 116.015C166.986 116.856 164.629 116.993 159.755 116.425L148.446 121.723L145.947 114.344ZM102.168 118.157L109.897 118.191C101.422 140.73 97.0025 152.531 96.6396 153.594C95.8227 155.985 97.5512 159.63 98.2903 161.587C95.883 162.859 96.1395 158.145 93.1028 159.815C90.3311 161.339 88.2227 164.1 85.0202 161.766C84.6265 161.477 84.1951 160.397 85.2375 159.552C87.8346 157.448 91.5771 153.765 92.0827 152.552C92.7723 150.9 96.1339 139.434 102.168 118.157Z" fill="#997659"/>
<path fill-rule="evenodd" clip-rule="evenodd" d="M123.338 89.1875L129.389 89.6639C130.881 105.599 138.999 115.664 157.174 112.256L159.589 132.777C142.601 135.371 127.703 127.334 124.649 105.572C123.858 99.938 123.234 94.0753 123.338 89.1875Z" fill="#AFB9C5"/>
<path fill-rule="evenodd" clip-rule="evenodd" d="M120.353 87.1082L129.521 89.5898C129.521 108.227 134.545 120.117 137.122 133.82H112.359C112.01 138.555 111.796 143.421 111.684 148.42H93.1428C97.3445 122 106.213 101.561 119.747 87.1016H120.347L120.353 87.1082Z" fill="#C5CFD6"/>
<path fill-rule="evenodd" clip-rule="evenodd" d="M116.266 107.232C115.628 118.845 116.002 127.708 117.392 133.82H112.359C113.05 124.44 114.269 115.578 116.266 107.232Z" fill="black" fill-opacity="0.1"/>
<path d="M21.5285 209.54C15.3294 209.54 10.2861 208.933 10.1077 208.192L11.0209 219.541C11.0209 224.921 15.7432 229.334 21.5285 229.334C27.3137 229.334 32.0361 224.928 32.0361 219.541L32.9492 208.169C32.8207 208.933 27.7631 209.54 21.5285 209.54Z" fill="#DEC7B2"/>
<path d="M21.5285 209.54C15.2368 209.54 10.1219 208.918 10.1077 208.161V208.146C10.1577 207.39 15.251 206.768 21.5285 206.768C27.8059 206.768 32.8993 207.39 32.9492 208.146V208.161C32.9135 208.918 27.8202 209.54 21.5285 209.54Z" fill="#E8D4C1"/>
<path d="M21.5284 209.301C16.2281 209.301 11.9195 208.775 11.9053 208.124V208.108C11.9552 207.472 16.2423 206.948 21.5284 206.948C26.8285 206.948 31.1228 207.472 31.1514 208.108V208.124C31.1371 208.783 26.8285 209.301 21.5284 209.301Z" fill="#BA9C7E"/>
<path d="M10.4929 213.054C11.2277 213.068 11.9482 213.376 12.5759 214.012C13.7458 215.204 14.4805 217.039 15.4293 218.432C15.7788 217.676 16.0998 216.905 16.3709 216.111C16.7062 215.167 17.9118 214.298 18.8533 215.054C19.8592 215.878 20.6153 216.8 21.2716 217.946C21.8352 218.936 22.2989 220.118 23.1763 220.853C24.0252 221.579 24.9881 221.774 25.3377 220.501C25.6445 219.376 25.5303 218.179 25.8799 217.055C26.1651 216.111 26.6147 215.151 27.5277 214.731C28.5977 214.245 29.6392 214.852 30.6023 215.354C31.1801 215.653 31.7365 215.976 32.2857 216.328L32.0931 218.718C31.1158 218.08 29.9174 217.286 28.9044 217.136C28.2625 217.039 28.3124 217.488 28.2625 218.111C28.234 218.665 28.234 219.235 28.1982 219.796C28.1341 220.943 27.9771 222.082 27.335 223.026C25.9583 225.064 23.376 224.958 21.5712 223.662C20.5939 222.973 19.8877 222.067 19.2671 221.025C19.0603 220.688 18.8676 220.336 18.6608 219.984C17.8761 221.887 16.692 223.603 14.7231 222.875C13.5033 222.419 12.7043 221.025 11.9838 219.984C11.7627 219.662 11.3418 218.875 10.9281 218.17L10.4929 213.054Z" fill="#EBDBCD"/>
<path d="M6.02724 170.731C6.26983 169.758 7.35406 169.608 7.99615 170.177C9.21593 171.257 9.8509 172.733 10.5285 174.201C11.2347 175.752 12.0979 177.16 13.1037 178.494C15.151 181.235 17.4267 183.775 18.9176 186.921C21.8138 193.013 22.5199 200.176 20.5226 206.686C20.4583 206.887 20.8436 205.862 20.2159 207.659C19.6523 209.292 17.4481 208.416 17.4623 206.513C17.4766 204.647 17.0129 202.917 16.2282 201.269C14.6731 197.987 12.7185 194.93 11.1991 191.634C9.65821 188.301 8.31713 184.869 7.22577 181.356C6.16991 177.932 5.16408 174.313 6.02724 170.731Z" fill="#4C7378"/>
<path d="M20.28 151.642C21.0648 150.144 23.3545 151.155 22.9051 152.804C21.5569 157.613 22.5199 162.708 23.3545 167.525C24.2034 172.44 25.195 177.316 25.7728 182.276C26.8 191.073 26.4648 200.961 21.1574 208.334C20.5796 209.128 19.3812 208.469 19.8591 207.525C20.387 206.484 19.0602 199.621 18.4681 197.432C17.8761 195.163 17.2696 192.908 16.7418 190.622C15.6861 186.166 14.8229 181.625 14.5946 177.032C14.1167 168.095 16.2139 159.449 20.28 151.642Z" fill="#57848A"/>
<path d="M22.8124 200.572C23.4402 197.575 22.9694 194.399 23.5829 191.425C24.175 188.494 24.9952 185.536 26.2864 182.861C27.5206 180.322 29.411 178.524 31.6223 176.942C33.7053 175.459 36.1735 173.998 36.9082 171.294C37.3434 169.675 39.9542 169.914 39.7902 171.698C39.4406 175.331 37.9782 178.531 36.2805 181.67C34.4685 185.004 32.885 188.195 32.0076 191.948C30.4881 198.377 29.1755 206.7 22.2061 208.671C21.35 208.902 21.4642 206.985 22.8124 200.572Z" fill="#689399"/>
</svg>
